<svg width="215" height="36" viewBox="0 0 215 36" fill="none" xmlns="http://www.w3.org/2000/svg">
<path d="M199.263 35.576C197.503 35.576 196.111 35.032 195.087 33.944C194.095 32.824 193.599 31.368 193.599 29.576V22.52C193.599 20.44 193.103 19.4 192.111 19.4C191.759 19.4 191.359 19.512 190.911 19.736H190.863C190.735 19.736 190.639 19.656 190.575 19.496C190.511 19.304 190.527 19.192 190.623 19.16L197.055 16.088L197.295 16.04C197.455 16.04 197.615 16.12 197.775 16.28C197.967 16.408 198.063 16.536 198.063 16.664V27.272C198.063 30.728 199.391 32.456 202.047 32.456C202.943 32.456 203.855 32.2 204.783 31.688C205.743 31.176 206.495 30.504 207.039 29.672L207.327 30.248C206.175 31.912 204.927 33.224 203.583 34.184C202.239 35.112 200.799 35.576 199.263 35.576ZM210.591 29.432C210.591 30.52 210.687 31.288 210.879 31.736C211.103 32.184 211.455 32.408 211.935 32.408C212.383 32.408 213.039 32.232 213.903 31.88H213.999C214.095 31.88 214.175 31.96 214.239 32.12C214.335 32.28 214.335 32.376 214.239 32.408L207.615 35.624C207.551 35.656 207.471 35.672 207.375 35.672C207.023 35.672 206.719 35.256 206.463 34.424C206.239 33.592 206.127 32.472 206.127 31.064V22.52C206.127 20.44 205.631 19.4 204.639 19.4C204.287 19.4 203.871 19.512 203.391 19.736H203.343C203.247 19.736 203.167 19.656 203.103 19.496C203.039 19.304 203.055 19.192 203.151 19.16L209.583 16.088C209.647 16.056 209.727 16.04 209.823 16.04C209.983 16.04 210.143 16.12 210.303 16.28C210.495 16.408 210.591 16.536 210.591 16.664V29.432Z" fill="black"/>
<path d="M167.434 34.952C167.402 35.08 167.226 35.144 166.906 35.144C166.586 35.144 166.41 35.08 166.378 34.952L154.138 8.984C153.658 7.96 153.258 7.224 152.938 6.776C152.65 6.328 152.314 6.024 151.93 5.864C151.578 5.672 151.098 5.576 150.49 5.576C150.394 5.576 150.346 5.48 150.346 5.288C150.346 5.096 150.394 5 150.49 5C150.97 5 151.306 5.016 151.498 5.048C152.138 5.112 152.97 5.144 153.994 5.144C156.138 5.144 157.946 5.112 159.418 5.048C159.834 5.016 160.346 5 160.954 5C161.05 5 161.098 5.096 161.098 5.288C161.098 5.48 161.05 5.576 160.954 5.576C160.154 5.576 159.578 5.656 159.226 5.816C158.906 5.976 158.746 6.264 158.746 6.68C158.746 7.224 159.114 8.28 159.85 9.848L168.922 29.096L166.906 32.408L172.426 17.768L173.338 19.112L167.434 34.952ZM194.266 5C194.33 5 194.362 5.096 194.362 5.288C194.362 5.48 194.33 5.576 194.266 5.576C193.082 5.576 191.962 6.088 190.906 7.112C189.882 8.104 189.034 9.48 188.362 11.24L179.482 34.952C179.45 35.08 179.274 35.144 178.954 35.144C178.634 35.144 178.458 35.08 178.426 34.952L166.186 8.984C165.642 7.832 165.13 6.984 164.65 6.44C164.17 5.864 163.658 5.576 163.114 5.576C163.018 5.576 162.97 5.48 162.97 5.288C162.97 5.096 163.018 5 163.114 5C163.434 5 163.802 5.032 164.218 5.096C164.666 5.128 165.29 5.144 166.09 5.144C167.914 5.144 169.434 5.112 170.65 5.048C170.97 5.016 171.386 5 171.898 5C171.994 5 172.042 5.096 172.042 5.288C172.042 5.48 171.994 5.576 171.898 5.576C171.45 5.576 171.114 5.64 170.89 5.768C170.698 5.864 170.602 6.056 170.602 6.344C170.602 6.888 171.034 8.056 171.898 9.848L181.066 29.096L179.002 32.408L186.778 11.576C187.162 10.552 187.354 9.624 187.354 8.792C187.354 7.8 187.098 7.016 186.586 6.44C186.106 5.864 185.45 5.576 184.618 5.576C184.522 5.576 184.474 5.48 184.474 5.288C184.474 5.096 184.522 5 184.618 5L186.826 5.048C187.978 5.112 189.034 5.144 189.994 5.144C190.634 5.144 191.37 5.112 192.202 5.048L194.266 5ZM175.21 11.096C175.914 9.272 176.266 7.896 176.266 6.968C176.266 6.04 175.866 5.576 175.066 5.576C174.97 5.576 174.922 5.48 174.922 5.288C174.922 5.096 174.97 5 175.066 5C175.322 5 175.594 5.032 175.882 5.096C176.202 5.128 176.97 5.144 178.186 5.144C178.73 5.144 179.386 5.112 180.154 5.048L181.93 5C181.994 5 182.026 5.096 182.026 5.288C182.026 5.48 181.994 5.576 181.93 5.576C179.786 5.576 178.01 7.464 176.602 11.24L173.626 19.112L172.714 17.768L175.21 11.096Z" fill="black"/>
<path d="M130.217 35.576C128.201 35.576 126.457 35.16 124.985 34.328C123.513 33.464 122.393 32.328 121.625 30.92C120.857 29.48 120.473 27.928 120.473 26.264C120.473 24.408 120.937 22.696 121.865 21.128C122.793 19.56 124.073 18.328 125.705 17.432C127.369 16.504 129.241 16.04 131.321 16.04C133.305 16.04 134.841 16.488 135.929 17.384C137.017 18.28 137.561 19.672 137.561 21.56C137.561 22.552 137.385 23.048 137.033 23.048H132.425C132.489 21.096 132.297 19.608 131.849 18.584C131.401 17.528 130.617 17 129.497 17C128.217 17 127.193 17.656 126.425 18.968C125.689 20.28 125.321 22.024 125.321 24.2C125.321 27.016 125.961 29.224 127.241 30.824C128.553 32.424 130.425 33.224 132.857 33.224C133.721 33.224 134.457 33.128 135.065 32.936C135.673 32.712 136.473 32.36 137.465 31.88L137.561 31.832C137.625 31.832 137.689 31.896 137.753 32.024C137.849 32.152 137.865 32.248 137.801 32.312C136.617 33.464 135.417 34.296 134.201 34.808C132.985 35.32 131.657 35.576 130.217 35.576ZM123.593 22.184L134.105 21.992V23.048L123.641 23.096L123.593 22.184Z" fill="black"/>
<path d="M108.2 35C108.104 35 108.056 34.904 108.056 34.712C108.056 34.52 108.104 34.424 108.2 34.424C109.192 34.424 109.864 34.2 110.216 33.752C110.568 33.272 110.744 32.392 110.744 31.112V22.52C110.744 21.432 110.632 20.648 110.408 20.168C110.184 19.688 109.816 19.448 109.304 19.448C108.888 19.448 108.296 19.624 107.528 19.976H107.48C107.352 19.976 107.256 19.896 107.192 19.736C107.128 19.544 107.144 19.432 107.24 19.4L114.488 16.04L114.632 15.992C114.792 15.992 114.952 16.072 115.112 16.232C115.272 16.392 115.352 16.536 115.352 16.664V17.72C115.288 19 115.256 20.568 115.256 22.424V31.112C115.256 32.392 115.432 33.272 115.784 33.752C116.168 34.2 116.856 34.424 117.848 34.424C117.944 34.424 117.992 34.52 117.992 34.712C117.992 34.904 117.944 35 117.848 35C117.016 35 116.36 34.984 115.88 34.952L113 34.904L110.168 34.952C109.688 34.984 109.032 35 108.2 35ZM112.808 11.24C111.88 11.24 111.16 10.984 110.648 10.472C110.136 9.95999 109.88 9.23999 109.88 8.31199C109.88 7.47999 110.136 6.82399 110.648 6.34399C111.192 5.83199 111.912 5.57599 112.808 5.57599C113.704 5.57599 114.392 5.81599 114.872 6.29599C115.352 6.77599 115.592 7.44799 115.592 8.31199C115.592 9.23999 115.352 9.95999 114.872 10.472C114.392 10.984 113.704 11.24 112.808 11.24Z" fill="black"/>
<path d="M95.1643 35C95.1003 35 95.0683 34.904 95.0683 34.712C95.0683 34.52 95.1003 34.424 95.1643 34.424C96.1563 34.424 96.8283 34.2 97.1803 33.752C97.5643 33.272 97.7564 32.392 97.7564 31.112L97.8043 6.72801C97.8043 5.60801 97.6923 4.80801 97.4683 4.32801C97.2763 3.84801 96.9243 3.60801 96.4123 3.60801C95.9963 3.60801 95.3884 3.78401 94.5884 4.13601H94.5403C94.4443 4.13601 94.3483 4.05601 94.2523 3.89601C94.1883 3.70401 94.1883 3.59201 94.2523 3.56001L101.308 0.248012L101.5 0.200012C101.66 0.200012 101.836 0.280012 102.028 0.440012C102.22 0.568012 102.316 0.696012 102.316 0.824013V31.112C102.316 32.392 102.492 33.272 102.844 33.752C103.196 34.2 103.868 34.424 104.86 34.424C104.988 34.424 105.052 34.52 105.052 34.712C105.052 34.904 104.988 35 104.86 35C104.06 35 103.42 34.984 102.94 34.952L100.012 34.904L97.1324 34.952C96.6524 34.984 95.9963 35 95.1643 35Z" fill="black"/>
<path d="M82.6408 21.368C84.4008 19.352 85.8088 17.96 86.8648 17.192C87.9528 16.392 88.8809 15.992 89.6489 15.992C90.3849 15.992 91.0889 16.264 91.7609 16.808C92.4649 17.32 92.8169 17.944 92.8169 18.68C92.8169 19.352 92.6088 19.912 92.1929 20.36C91.7768 20.776 91.2328 20.984 90.5608 20.984C90.0808 20.984 89.6808 20.888 89.3608 20.696C89.0728 20.504 88.7688 20.216 88.4488 19.832C88.1608 19.512 87.9048 19.288 87.6808 19.16C87.4888 19 87.2488 18.92 86.9608 18.92C86.6088 18.92 86.1608 19.112 85.6168 19.496C85.1048 19.88 84.2408 20.712 83.0248 21.992L82.6408 21.368ZM77.1688 35C77.0728 35 77.0248 34.904 77.0248 34.712C77.0248 34.52 77.0728 34.424 77.1688 34.424C78.1608 34.424 78.8328 34.2 79.1848 33.752C79.5368 33.272 79.7128 32.392 79.7128 31.112V22.088C79.7128 21.096 79.5848 20.376 79.3288 19.928C79.1048 19.448 78.7368 19.208 78.2248 19.208C77.6808 19.208 76.9128 19.432 75.9208 19.88H75.8248C75.7288 19.88 75.6488 19.8 75.5848 19.64C75.5528 19.48 75.5688 19.384 75.6328 19.352L82.3048 16.088C82.4968 16.024 82.6088 15.992 82.6408 15.992C83.0248 15.992 83.3768 16.408 83.6968 17.24C84.0488 18.04 84.2248 19.112 84.2248 20.456V31.112C84.2248 32.392 84.5289 33.272 85.1369 33.752C85.7449 34.2 86.8648 34.424 88.4968 34.424C88.6248 34.424 88.6888 34.52 88.6888 34.712C88.6888 34.904 88.6248 35 88.4968 35C87.3768 35 86.4968 34.984 85.8568 34.952L81.9688 34.904L79.1369 34.952C78.6569 34.984 78.0008 35 77.1688 35Z" fill="black"/>
<path d="M70.4057 35.288C70.2777 35.352 70.1177 35.384 69.9257 35.384C69.2857 35.384 68.6937 34.984 68.1497 34.184C67.6057 33.352 67.3337 32.264 67.3337 30.92V22.76C67.3337 20.712 67.1577 19.224 66.8057 18.296C66.4857 17.368 65.9257 16.904 65.1257 16.904C63.4297 16.904 62.4697 18.216 62.2457 20.84C62.1497 21.8 61.8617 22.488 61.3817 22.904C60.9337 23.32 60.2937 23.528 59.4617 23.528C58.6617 23.528 58.0697 23.368 57.6857 23.048C57.3337 22.696 57.1577 22.248 57.1577 21.704C57.1577 20.744 57.7177 19.832 58.8377 18.968C59.9577 18.072 61.3017 17.352 62.8697 16.808C64.4697 16.264 65.8777 15.992 67.0937 15.992C68.5017 15.992 69.6377 16.44 70.5017 17.336C71.3977 18.2 71.8457 19.528 71.8457 21.32V29.816C71.8457 30.744 72.0057 31.464 72.3257 31.976C72.6777 32.488 73.1577 32.744 73.7657 32.744C74.2137 32.744 74.6777 32.632 75.1577 32.408H75.2057C75.3337 32.408 75.4137 32.488 75.4457 32.648C75.5097 32.776 75.4777 32.872 75.3497 32.936L70.4057 35.288ZM61.1897 35.336C59.8137 35.336 58.7737 35.032 58.0697 34.424C57.3657 33.816 57.0137 32.968 57.0137 31.88C57.0137 31.016 57.2217 30.328 57.6377 29.816C58.0537 29.272 58.5657 28.856 59.1737 28.568C59.8137 28.248 60.6937 27.896 61.8137 27.512L63.0137 27.08L67.8137 25.304L68.0057 26.024L65.2697 27.272C65.1737 27.304 64.8537 27.432 64.3097 27.656C63.7657 27.848 63.2857 28.184 62.8697 28.664C62.4857 29.144 62.2937 29.704 62.2937 30.344C62.2937 31.112 62.5337 31.72 63.0137 32.168C63.5257 32.584 64.1017 32.792 64.7417 32.792C65.2537 32.792 65.7817 32.616 66.3257 32.264L68.7257 30.632L68.7737 31.4L65.4137 33.8C64.6777 34.344 63.9897 34.744 63.3497 35C62.7097 35.224 61.9897 35.336 61.1897 35.336Z" fill="black"/>
<path d="M31.6799 35C31.6159 35 31.5839 34.904 31.5839 34.712C31.5839 34.52 31.6159 34.424 31.6799 34.424C32.6719 34.424 33.3439 34.2 33.6959 33.752C34.0799 33.272 34.2719 32.392 34.2719 31.112V6.72801C34.2719 5.60801 34.1599 4.80801 33.9359 4.32801C33.7439 3.84801 33.3919 3.60801 32.8799 3.60801C32.4319 3.60801 31.8239 3.78401 31.0559 4.13601H31.0079C30.9119 4.13601 30.8159 4.05601 30.7199 3.89601C30.6559 3.70401 30.6559 3.59201 30.7199 3.56001L37.7279 0.248012L37.9679 0.200012C38.1279 0.200012 38.2879 0.280012 38.4479 0.440012C38.6399 0.568012 38.7359 0.696012 38.7359 0.824013V31.112C38.7359 32.392 38.9119 33.272 39.2639 33.752C39.6479 34.2 40.3359 34.424 41.3279 34.424C41.4559 34.424 41.5199 34.52 41.5199 34.712C41.5199 34.904 41.4559 35 41.3279 35C40.4959 35 39.8239 34.984 39.3119 34.952L36.5279 34.904L33.6479 34.952C33.1679 34.984 32.5119 35 31.6799 35ZM44.5919 35C44.5279 35 44.4959 34.904 44.4959 34.712C44.4959 34.52 44.5279 34.424 44.5919 34.424C45.5839 34.424 46.2559 34.2 46.6079 33.752C46.9919 33.272 47.1839 32.392 47.1839 31.112V24.2C47.1839 22.472 46.8639 21.192 46.2239 20.36C45.5839 19.528 44.5919 19.112 43.2479 19.112C42.2559 19.112 41.2639 19.368 40.2719 19.88C39.2799 20.36 38.4959 21 37.9199 21.8L37.6319 21.224C40.1599 17.672 42.9599 15.896 46.0319 15.896C47.7599 15.896 49.1199 16.456 50.1119 17.576C51.1359 18.664 51.6479 20.104 51.6479 21.896V31.112C51.6479 32.392 51.8239 33.272 52.1759 33.752C52.5599 34.2 53.2479 34.424 54.2399 34.424C54.3679 34.424 54.4319 34.52 54.4319 34.712C54.4319 34.904 54.3679 35 54.2399 35C53.4079 35 52.7359 34.984 52.2239 34.952L49.4399 34.904L46.5599 34.952C46.0799 34.984 45.4239 35 44.5919 35Z" fill="black"/>
<path d="M18.4961 4.47198C20.0001 4.47198 21.5201 4.59999 23.056 4.85599C24.6241 5.07998 25.8721 5.38398 26.8001 5.76799C27.0881 5.86399 27.264 5.99199 27.328 6.15199C27.424 6.27999 27.4881 6.51999 27.5201 6.87199L28.1441 13.544C28.1441 13.64 28.0641 13.704 27.9041 13.736C27.7441 13.768 27.6321 13.72 27.5681 13.592C26.6721 10.968 25.392 8.96799 23.7281 7.59199C22.0641 6.18399 20.0641 5.47999 17.7281 5.47999C15.5521 5.47999 13.6001 6.07199 11.8721 7.25599C10.1761 8.40799 8.83205 10.072 7.84005 12.248C6.88005 14.424 6.40005 16.968 6.40005 19.88C6.40005 22.824 6.89605 25.416 7.88805 27.656C8.91205 29.864 10.3041 31.576 12.0641 32.792C13.8561 33.976 15.9041 34.568 18.2081 34.568C20.4161 34.568 22.2721 33.976 23.7761 32.792C25.2801 31.576 26.7041 29.592 28.0481 26.84C28.0801 26.744 28.1761 26.712 28.3361 26.744C28.4961 26.776 28.576 26.84 28.576 26.936L27.8561 32.888C27.7921 33.272 27.7281 33.528 27.6641 33.656C27.6001 33.752 27.4241 33.864 27.1361 33.992C24.1921 35.048 21.2161 35.576 18.2081 35.576C14.7841 35.576 11.7121 34.936 8.99205 33.656C6.30405 32.344 4.19205 30.52 2.65605 28.184C1.12005 25.848 0.352051 23.192 0.352051 20.216C0.352051 17.176 1.13605 14.472 2.70405 12.104C4.30405 9.70398 6.48005 7.83198 9.23205 6.48798C12.0161 5.14398 15.1041 4.47198 18.4961 4.47198Z" fill="black"/>
</svg>
